<?xml version="1.0" encoding="UTF-8"?><svg xmlns="http://www.w3.org/2000/svg" xmlns:xlink="http://www.w3.org/1999/xlink" height="406.1" preserveAspectRatio="xMidYMid meet" version="1.0" viewBox="17.5 53.0 477.1 406.1" width="477.1" zoomAndPan="magnify"><g><g><g id="change1_1"><path d="M297.129,64.219c-10.975,0-21.943,0.922-32.705,2.716l-4.309-13.977l-39.447,42.501l56.529,12.919 l-4.119-13.365c7.938-1.134,15.99-1.718,24.051-1.718c92.82,0,168.336,75.516,168.336,168.336s-75.516,168.335-168.336,168.335 c-27.639,0-55.041-6.838-79.241-19.775l-13.708,25.641c28.402,15.185,60.544,23.211,92.949,23.211 c108.854,0,197.412-88.559,197.412-197.411C494.541,152.777,405.982,64.219,297.129,64.219z" fill="#EF5F36"/></g><g id="change2_1"><path d="M297.131,124.893c75.51,0,136.73,61.221,136.73,136.74c0,75.51-61.221,136.729-136.73,136.729 c-75.52,0-136.741-61.22-136.741-136.729C160.39,186.113,221.611,124.893,297.131,124.893z" fill="#46CBD6"/></g><g id="change3_1"><circle cx="253.078" cy="217.581" fill="#FFF" r="20.832"/></g><g id="change3_2"><circle cx="340.281" cy="304.782" fill="#FFF" r="20.832"/></g><g id="change3_3"><path d="M286.712 162.364H307.544V360.898H286.712z" fill="#FFF" transform="rotate(45.001 297.133 261.629)"/></g><g id="change4_1"><path d="M181.666 285.534L181.666 285.3 202.284 285.3 202.284 247.686 43.078 247.686 43.078 266.726 43.078 285.3 43.078 285.534 22.459 285.534 22.459 323.148 43.078 323.148 43.078 360.763 22.459 360.763 22.459 398.378 181.666 398.378 181.666 360.763 202.284 360.763 202.284 323.148 181.666 323.148 181.666 304.341z" fill="#F4C551"/></g><g id="change5_1"><path d="M122.681,95.47c41.798,0,75.688,33.891,75.688,75.688s-33.89,75.688-75.688,75.688 s-75.688-33.891-75.688-75.688S80.883,95.47,122.681,95.47z" fill="#FEC842"/></g><g id="change3_4"><path d="M198.369,171.158c0,41.798-33.89,75.688-75.688,75.688s-75.688-33.891-75.688-75.688 S80.883,95.47,122.681,95.47S198.369,129.36,198.369,171.158z" fill="#FFF"/></g><g id="change4_2"><path d="M122.681,117.53c29.614,0,53.627,24.013,53.627,53.628s-24.013,53.627-53.627,53.627 c-29.615,0-53.628-24.012-53.628-53.627S93.066,117.53,122.681,117.53z" fill="#F4C551"/></g></g><g id="change6_1"><path d="M297.131,119.893c-26.688,0-52.688,7.458-75.192,21.566l5.313,8.473c20.909-13.109,45.073-20.039,69.879-20.039 c72.637,0,131.73,59.099,131.73,131.74c0,72.636-59.094,131.729-131.73,131.729c-25.875,0-50.917-7.494-72.422-21.673 l-5.504,8.349c23.143,15.26,50.088,23.324,77.926,23.324c78.15,0,141.73-63.579,141.73-141.729 C438.861,183.478,375.281,119.893,297.131,119.893z" fill="inherit"/><path d="M278.91,217.581c0-14.244-11.588-25.832-25.832-25.832c-14.244,0-25.832,11.588-25.832,25.832 c0,14.243,11.588,25.832,25.832,25.832C267.322,243.413,278.91,231.824,278.91,217.581z M237.247,217.581 c0-8.73,7.103-15.832,15.832-15.832c8.73,0,15.832,7.102,15.832,15.832c0,8.729-7.102,15.832-15.832,15.832 C244.349,233.413,237.247,226.311,237.247,217.581z" fill="inherit"/><path d="M314.449,304.782c0,14.244,11.588,25.832,25.832,25.832s25.832-11.588,25.832-25.832s-11.588-25.832-25.832-25.832 S314.449,290.538,314.449,304.782z M356.113,304.782c0,8.73-7.104,15.832-15.832,15.832c-8.73,0-15.832-7.102-15.832-15.832 s7.102-15.832,15.832-15.832C349.01,288.95,356.113,296.052,356.113,304.782z" fill="inherit"/><path d="M234.301,346.26l147.457-147.456l-21.803-21.802L212.5,324.458L234.301,346.26z M367.615,198.804L234.301,332.117 l-7.659-7.659l133.313-133.313L367.615,198.804z" fill="inherit"/><path d="M203.369,171.158c0-44.492-36.196-80.688-80.688-80.688c-44.492,0-80.688,36.196-80.688,80.688 c0,31.05,17.64,58.041,43.414,71.527H38.078v37.849H17.459v47.614h20.618v27.614H17.459v47.615h169.206v-37.615h20.618v-47.614 h-20.618V290.3h20.618v-47.614h-47.329C185.729,229.199,203.369,202.208,203.369,171.158z M51.993,171.158 c0-38.978,31.711-70.688,70.688-70.688s70.688,31.711,70.688,70.688s-31.71,70.688-70.688,70.688S51.993,210.136,51.993,171.158z M176.666,393.378h-9.261V379.57h-10v13.808h-20.171V379.57h-10v13.808h-20.172V379.57h-10v13.808H76.891V379.57h-10v13.808 H46.719V379.57h-10v13.808h-9.26v-27.615h10.618h138.588V393.378z M197.284,328.148v27.614h-9.26v-13.807h-10v13.807h-20.172 v-13.807h-10v13.807h-20.171v-13.807h-10v13.807H97.509v-13.807h-10v13.807H67.337v-13.807h-10v13.807h-9.26v-27.614h138.588 H197.284z M167.405,318.148v-13.808h-10v13.808h-20.171v-13.808h-10v13.808h-20.172v-13.808h-10v13.808H76.891v-13.808h-10v13.808 H46.719v-13.808h-10v13.808h-9.26v-27.614h149.206v27.614H167.405z M197.284,280.3h-9.26v-13.807h-10V280.3h-20.172v-13.807h-10 V280.3h-20.171v-13.807h-10V280.3H97.509v-13.807h-10V280.3H67.337v-13.807h-10V280.3h-9.26v-27.614h149.206V280.3z" fill="inherit"/><path d="M127.689,212.513v-5.359c0.409-0.097,0.819-0.191,1.224-0.312c8.77-2.606,14.71-11.004,14.447-20.421 c-0.171-6.131-2.354-14.854-19.263-19.817c-10.666-3.13-11.713-5.863-12.026-9.382c-0.516-5.788,3.106-10.933,8.425-11.966 c0.271-0.053,0.541-0.096,0.813-0.129c2.674-0.329,5.295,0.503,7.372,2.346c2.195,1.946,3.449,4.743,3.441,7.67l-0.002,0.559 l10,0.035l0.002-0.563c0.016-5.799-2.465-11.333-6.806-15.183c-2.229-1.977-4.846-3.376-7.627-4.171v-5.529h-10v5.368 c-9.867,2.393-16.521,11.862-15.579,22.449c0.947,10.623,8.349,14.915,19.171,18.091c9.899,2.905,11.962,6.172,12.083,10.5 c0.139,4.976-2.795,9.218-7.302,10.558c-0.645,0.192-1.296,0.331-1.939,0.413c-2.687,0.34-5.319-0.481-7.411-2.323 c-2.206-1.94-3.471-4.737-3.471-7.673h-10c0,5.808,2.502,11.341,6.863,15.18c2.222,1.956,4.821,3.355,7.585,4.145v5.515H127.689z" fill="inherit"/></g></g></svg>