<?xml version="1.0" encoding="UTF-8" standalone="no"?><svg xmlns="http://www.w3.org/2000/svg" xmlns:xlink="http://www.w3.org/1999/xlink" fill="#000000" height="749.5" preserveAspectRatio="xMidYMid meet" version="1" viewBox="129.4 125.0 741.7 749.5" width="741.7" zoomAndPan="magnify"><g fill="#aecc4b" id="change1_1"><path d="M 170.5625 363.085938 C 169.652344 364.621094 168.671875 366.492188 167.617188 368.648438 C 166.589844 370.808594 165.65625 373.3125 164.601562 376.019531 C 163.59375 378.75 162.507812 381.695312 161.359375 384.808594 C 160.257812 387.9375 159.371094 391.324219 158.332031 394.796875 C 154.074219 408.664062 151.054688 424.929688 148.445312 439.839844 C 149.851562 433.441406 151.335938 427.066406 152.84375 420.722656 C 154.128906 424.003906 159.023438 407.914062 160.71875 408.695312 C 156.304688 408.222656 166.703125 383.15625 171.304688 369.582031 L 170.5625 363.085938" fill="inherit"/><path d="M 174.011719 353.070312 L 176.460938 348.46875 C 178.097656 343.835938 179.550781 339.089844 181.359375 334.496094 L 186.859375 320.679688 C 179.40625 335.816406 172.769531 351.3125 167.347656 367.21875 L 171.792969 357.777344 L 174.011719 353.070312" fill="inherit"/><path d="M 189.496094 328.722656 C 190.84375 326.804688 192.621094 323.847656 193.964844 321.4375 C 192.214844 323.800781 190.816406 326.285156 189.496094 328.722656" fill="inherit"/><path d="M 214.921875 288.214844 C 217.035156 284.894531 219.148438 281.671875 220.9375 279.503906 C 222.828125 277.414062 224.34375 276.34375 225.117188 277.199219 C 230.429688 267.851562 227.195312 270.390625 224.492188 272.449219 C 221.804688 274.492188 219.652344 276.03125 227.4375 264.285156 C 223.550781 269.652344 219.664062 274.460938 216.222656 279.253906 C 212.851562 284.089844 209.421875 288.546875 206.304688 293.0625 C 203.214844 297.601562 200.195312 302.03125 197.171875 306.476562 C 194.3125 311.039062 191.449219 315.621094 188.496094 320.34375 C 192.542969 315.21875 193.640625 312.8125 198.902344 305.394531 C 190.796875 318.972656 182.125 338.449219 175.355469 355.480469 C 178.613281 351.460938 181.183594 346.230469 183.757812 340.226562 C 185.042969 337.226562 186.648438 334.1875 188.269531 331 C 188.679688 330.25 189.085938 329.488281 189.496094 328.722656 C 187.6875 331.304688 186.660156 332.011719 188.53125 326.960938 C 191.039062 323.226562 193.28125 319.859375 195.238281 316.597656 C 197.191406 313.328125 198.824219 310.144531 200.503906 307.03125 C 202.289062 303.976562 204.042969 300.941406 206.019531 297.871094 C 207.011719 296.335938 208.054688 294.789062 209.1875 293.226562 C 210.347656 291.6875 211.675781 290.183594 213.078125 288.636719 C 210.207031 293.074219 207.757812 297.777344 205.1875 302.382812 C 206.921875 302.207031 210.542969 294.765625 214.921875 288.214844" fill="inherit"/><path d="M 239.3125 252.246094 C 238.597656 253.714844 238.644531 254.144531 239.15625 253.953125 C 239.699219 252.703125 240.019531 251.796875 239.3125 252.246094" fill="inherit"/><path d="M 239.992188 257.285156 C 251.210938 244.710938 270.027344 226.964844 271.472656 221.671875 C 263.824219 226.519531 260.222656 230.449219 257.679688 233.628906 C 255.179688 236.859375 253.855469 239.507812 251.640625 242.964844 C 249.667969 244.625 245.722656 248.472656 242.691406 251.132812 C 241.070312 252.605469 239.773438 253.726562 239.15625 253.953125 C 238.042969 256.53125 235.980469 260.578125 239.992188 257.285156" fill="inherit"/><path d="M 288.21875 206.648438 C 287.824219 207.300781 287.0625 209.339844 284.742188 212.480469 C 283.589844 214.0625 282.007812 215.867188 279.960938 218.007812 C 277.953125 220.203125 275.429688 222.660156 272.210938 225.367188 C 276.070312 223.132812 278.222656 221.15625 280.332031 219.074219 C 282.460938 217.019531 284.65625 215 288.375 212.535156 C 290.964844 209.21875 293.519531 205.804688 296.328125 202.660156 C 294.253906 204.316406 292.21875 206.007812 290.269531 207.8125 L 288.21875 206.648438" fill="inherit"/><path d="M 260.449219 220.886719 C 264.8125 217.050781 269.234375 213.160156 273.074219 209.785156 C 280.820312 203.417969 286.058594 198.660156 282.5625 198.066406 C 275.484375 203.820312 269.8125 208.6875 268.253906 210.984375 L 269.027344 209.601562 C 269.027344 209.601562 265.964844 212.847656 261.8125 217.25 C 257.675781 221.640625 253.003906 227.714844 249.203125 232.714844 C 252.289062 229.042969 256.292969 224.941406 260.449219 220.886719" fill="inherit"/><path d="M 295.367188 189.484375 C 297.308594 187.976562 299.296875 186.429688 301.46875 184.734375 C 303.6875 183.09375 306.09375 181.3125 308.839844 179.277344 C 300.835938 184.382812 291.523438 191.117188 283.75 197.105469 C 283.617188 197.210938 283.496094 197.3125 283.367188 197.417969 C 285.496094 196.097656 287.46875 194.878906 289.328125 193.726562 C 291.453125 192.355469 293.40625 190.964844 295.367188 189.484375" fill="inherit"/><path d="M 282.378906 198.027344 C 282.449219 198.035156 282.496094 198.058594 282.5625 198.066406 C 282.832031 197.851562 283.09375 197.636719 283.367188 197.417969 C 283.027344 197.625 282.726562 197.8125 282.378906 198.027344" fill="inherit"/><path d="M 305.476562 185.085938 C 307.679688 183.484375 301.402344 187.367188 294.902344 192.460938 C 288.226562 197.3125 281.410156 203.402344 281.230469 204.46875 C 283.5 203.136719 287.085938 199.460938 290.886719 196.664062 C 294.617188 193.777344 298.195312 191.308594 299.816406 191.726562 C 304.164062 188.695312 305.824219 187.714844 305.871094 187.390625 C 305.945312 187.097656 304.523438 187.640625 303.058594 188.195312 C 301.597656 188.761719 300.148438 189.429688 300.054688 189.175781 C 299.972656 188.941406 301.214844 187.742188 305.476562 185.085938" fill="inherit"/><path d="M 376.929688 160.570312 C 371.949219 161.691406 368.425781 162.386719 364.890625 166.65625 C 368.203125 164.261719 373.457031 162.703125 378.976562 161.09375 C 381.730469 160.285156 384.5625 159.453125 387.332031 158.644531 C 390.117188 157.886719 392.804688 157.050781 395.226562 156.046875 L 398.660156 153.160156 C 393.539062 155.644531 389.351562 157.164062 385.789062 158.183594 C 382.296875 159.363281 379.421875 160.011719 376.929688 160.570312" fill="inherit"/><path d="M 431.128906 142.082031 C 418.457031 146.410156 398.355469 151.136719 388.824219 156.265625 C 393.660156 154.261719 394.972656 154.207031 398.660156 153.160156 C 408.628906 150.683594 420.144531 147.203125 431.25 144.855469 C 436.753906 143.480469 442.21875 142.765625 447.1875 142.148438 C 449.675781 141.855469 452.050781 141.640625 454.273438 141.523438 C 456.515625 141.503906 458.605469 141.601562 460.5 141.800781 C 458.632812 141.019531 460.597656 139.726562 460.800781 138.828125 C 460.898438 138.378906 460.554688 138.03125 459.054688 137.902344 C 457.558594 137.816406 454.871094 137.738281 450.390625 138.460938 C 447.789062 140.019531 441.414062 141.136719 442.683594 142.210938 C 435.015625 143.15625 436.28125 141.484375 431.128906 142.082031" fill="inherit"/><path d="M 357.808594 158.839844 C 356.523438 159.152344 355.703125 159.183594 354.867188 159.214844 C 352.707031 159.34375 350.21875 159.210938 338.953125 165.25 L 333.832031 170.921875 C 339.949219 167.402344 344.894531 164.746094 349.238281 162.546875 C 352.324219 161.15625 355.109375 159.96875 357.808594 158.839844" fill="inherit"/><path d="M 382.363281 143.632812 C 382.511719 143.351562 382.613281 143.066406 382.636719 142.777344 C 380.84375 143.652344 381.105469 143.8125 382.363281 143.632812" fill="inherit"/><path d="M 369.976562 154.042969 C 369.921875 154.035156 369.882812 154.023438 369.828125 154.019531 C 366.820312 155.152344 364.039062 156.179688 361.335938 157.367188 C 360.167969 157.851562 358.992188 158.34375 357.808594 158.839844 C 358.203125 158.742188 358.636719 158.625 359.136719 158.464844 C 361.289062 157.84375 364.40625 156.3125 369.976562 154.042969" fill="inherit"/><path d="M 380.941406 149.589844 C 383.605469 148.460938 386.601562 147.4375 389.882812 146.113281 C 386.925781 147.035156 383.921875 147.855469 380.988281 148.867188 L 372.21875 151.996094 C 374.53125 149.992188 379.753906 147.65625 384.851562 145.996094 C 389.925781 144.273438 394.679688 142.683594 395.828125 141.242188 C 394.804688 140.625 385.460938 143.1875 382.363281 143.632812 C 379.773438 148.59375 359.671875 152.425781 369.828125 154.019531 C 371.039062 153.5625 372.28125 153.089844 373.582031 152.582031 C 375.847656 151.691406 378.273438 150.710938 380.941406 149.589844" fill="inherit"/><path d="M 521.730469 126.199219 C 521.820312 126.199219 521.917969 126.199219 522.011719 126.199219 C 522.042969 126.101562 508.585938 124.96875 508.8125 125.945312 C 512.6875 125.9375 516.5625 126.078125 520.441406 126.128906 C 521.074219 126.171875 521.480469 126.191406 521.730469 126.199219" fill="inherit"/><path d="M 478.433594 128.070312 C 476.09375 128.136719 473.699219 128.234375 471.242188 128.371094 C 468.800781 128.628906 466.296875 128.933594 463.734375 129.285156 L 463.8125 129.3125 C 467.242188 129.097656 470.859375 128.871094 474.578125 128.640625 C 478.5 128.519531 482.453125 128.253906 486.371094 127.996094 C 483.792969 127.984375 481.164062 128.019531 478.433594 128.070312" fill="inherit"/><path d="M 455.300781 130.511719 C 456.773438 131.027344 455.730469 131.609375 450.492188 132.890625 L 441.34375 131.898438 C 433.863281 134.324219 426.636719 137.582031 419.410156 140.453125 C 423.554688 138.855469 427.988281 137.671875 432.328125 136.71875 C 436.652344 135.699219 440.976562 135.382812 444.789062 134.8125 C 448.617188 134.335938 451.976562 133.738281 454.585938 133.175781 C 457.195312 132.605469 459.019531 131.796875 459.730469 130.515625 L 468.84375 131.042969 L 463.8125 129.3125 C 458.820312 129.621094 454.257812 129.90625 450.566406 130.136719 C 452.734375 130.09375 454.441406 130.203125 455.300781 130.511719" fill="inherit"/><path d="M 450.566406 130.136719 C 449.019531 130.171875 447.238281 130.277344 445.328125 130.464844 C 446.769531 130.375 448.546875 130.265625 450.566406 130.136719" fill="inherit"/><path d="M 420.289062 135.804688 C 420.304688 135.800781 420.316406 135.792969 420.332031 135.785156 C 418.636719 136.183594 416.941406 136.582031 415.269531 137.066406 L 407.554688 139.324219 C 411.265625 138.425781 414.019531 137.695312 416.054688 137.09375 C 418.101562 136.539062 419.445312 136.164062 420.289062 135.804688" fill="inherit"/><path d="M 438.757812 131.613281 C 436.988281 131.132812 435.199219 130.609375 433.417969 130.167969 C 419.605469 132.648438 420.632812 133.398438 421.351562 134.242188 C 421.703125 134.65625 421.96875 135.101562 420.332031 135.785156 C 421.246094 135.570312 422.160156 135.363281 423.070312 135.132812 C 428.296875 133.953125 433.464844 132.476562 438.757812 131.613281" fill="inherit"/><path d="M 654.933594 161.859375 C 656.925781 163.324219 657.378906 164.226562 656.066406 164.238281 C 661.019531 165.554688 660.90625 164.65625 658.160156 162.855469 C 655.417969 161.050781 650.070312 158.28125 644.457031 156.414062 C 646.917969 157.425781 649.0625 158.371094 650.820312 159.28125 C 652.558594 160.257812 653.9375 161.128906 654.933594 161.859375" fill="inherit"/><path d="M 765.300781 260.199219 C 764.375 258.492188 761.324219 255.027344 757.394531 250.804688 C 757.5625 252.148438 759.351562 254.886719 765.300781 260.199219" fill="inherit"/><path d="M 515.984375 136.972656 C 518.527344 137.144531 521.316406 137.210938 523.90625 137.261719 C 521.230469 137.164062 518.6875 137.070312 515.984375 136.972656" fill="inherit"/><path d="M 523.90625 137.261719 C 525.628906 137.324219 527.378906 137.355469 529.078125 137.542969 C 527.582031 137.351562 525.847656 137.300781 523.90625 137.261719" fill="inherit"/><path d="M 683.308594 190.238281 C 683.753906 190.648438 684.195312 190.984375 684.652344 191.371094 C 684.664062 191.378906 684.664062 191.378906 684.714844 191.402344 L 683.308594 190.238281" fill="inherit"/><path d="M 151.324219 461.058594 C 151.136719 464.496094 150.945312 468.003906 150.757812 471.472656 C 150.992188 468.746094 151.191406 465.347656 151.355469 460.941406 C 151.34375 460.988281 151.335938 460.988281 151.324219 461.058594" fill="inherit"/><path d="M 154.863281 428.992188 C 155.15625 427.203125 155.433594 425.300781 155.6875 423.242188 C 155.4375 425.144531 155.144531 427.070312 154.863281 428.992188" fill="inherit"/><path d="M 154.863281 428.992188 C 154.082031 433.753906 153.199219 437.632812 152.394531 440.949219 C 151.390625 445.523438 150.265625 449.003906 149.199219 452.140625 C 146.9375 458.390625 145.566406 463.378906 145.839844 472.851562 C 150.601562 447.421875 146.714844 478.101562 151.324219 461.058594 C 151.671875 454.527344 152.558594 448.121094 153.105469 441.78125 C 153.609375 437.445312 154.242188 433.199219 154.863281 428.992188" fill="inherit"/><path d="M 243.335938 240.296875 C 243.097656 240.59375 242.902344 240.84375 242.664062 241.140625 C 243.953125 239.632812 244.546875 238.859375 243.335938 240.296875" fill="inherit"/><path d="M 660.488281 827.871094 C 655.894531 829.660156 652.042969 831.652344 651.117188 833.566406 C 653.621094 832.839844 657.175781 830.886719 661.210938 828.824219 C 663.222656 827.785156 665.351562 826.699219 667.515625 825.683594 C 669.65625 824.605469 671.792969 823.515625 673.925781 822.652344 C 672.128906 823.457031 669.9375 824.359375 667.617188 825.269531 C 665.257812 826.101562 662.785156 826.972656 660.488281 827.871094" fill="inherit"/><path d="M 655.902344 843.238281 L 655.804688 842.71875 C 654.777344 843.320312 653.386719 844.066406 651.847656 844.867188 C 653.203125 844.363281 654.554688 843.832031 655.902344 843.238281" fill="inherit"/><path d="M 655.523438 841.421875 L 655.804688 842.71875 C 657.910156 841.355469 658.519531 840.625 655.523438 841.421875" fill="inherit"/><path d="M 622.433594 855.003906 L 639.289062 849.527344 C 639.621094 851.375 639.765625 852.273438 629.277344 855.597656 C 632.011719 855.445312 641.035156 851.378906 646.03125 848.855469 L 642.171875 850.167969 C 644.222656 848.785156 648.371094 846.6875 651.847656 844.867188 C 637.066406 850.691406 624.226562 849.703125 622.433594 855.003906" fill="inherit"/><path d="M 598.824219 863.136719 C 602.179688 862.472656 607.792969 860.855469 611.882812 859.332031 C 615.980469 857.828125 618.539062 856.445312 615.789062 855.988281 C 610.175781 858.363281 604.609375 861.09375 598.824219 863.136719" fill="inherit"/><path d="M 582.859375 863.171875 C 579.351562 863.972656 573.988281 865.050781 571.96875 865.773438 C 592.359375 863.660156 580.785156 862.867188 592.253906 859.726562 C 588.730469 860.488281 585.421875 861.273438 582.671875 862.230469 C 588.003906 861.71875 586.367188 862.324219 582.859375 863.171875" fill="inherit"/><path d="M 597.195312 858.457031 C 595.136719 858.933594 593.621094 859.339844 592.253906 859.726562 C 593.875 859.355469 595.554688 858.953125 597.195312 858.457031" fill="inherit"/><path d="M 750.996094 765.996094 L 749.519531 766.019531 C 749.019531 766.851562 749.164062 767.132812 750.996094 765.996094" fill="inherit"/><path d="M 535.761719 867.402344 L 534.449219 867.355469 C 532.738281 867.550781 530.960938 867.742188 529.03125 867.886719 L 535.761719 867.402344" fill="inherit"/><path d="M 850.070312 601.597656 C 850.105469 601.550781 850.125 601.535156 850.15625 601.496094 C 850.144531 601.476562 850.121094 601.492188 850.070312 601.597656" fill="inherit"/><path d="M 150.738281 374.671875 C 150.820312 374.054688 150.867188 373.453125 150.847656 372.878906 L 150.738281 374.671875" fill="inherit"/><path d="M 471.71875 870.371094 L 471.253906 870.203125 C 471.238281 870.261719 471.40625 870.316406 471.71875 870.371094" fill="inherit"/><path d="M 646.492188 165.4375 C 645.582031 165.5 644.695312 165.554688 645.484375 166.144531 C 641.117188 163.824219 635.773438 161.417969 629.957031 159.207031 C 626.554688 158.070312 623.058594 156.902344 619.578125 155.742188 C 618.394531 155.363281 617.222656 154.992188 616.050781 154.617188 C 617.898438 155.363281 619.765625 156.085938 621.582031 156.863281 C 635.019531 162.5 647.660156 168.613281 660.082031 175.003906 C 657.082031 171.980469 653.664062 169.019531 646.492188 165.4375" fill="inherit"/><path d="M 848.542969 446.042969 L 848.859375 446.613281 C 848.757812 446.503906 848.652344 446.308594 848.542969 446.042969 Z M 836.257812 602.523438 C 836.859375 599.953125 837.367188 597.375 837.898438 594.84375 C 838.441406 591.988281 838.980469 589.175781 839.507812 586.425781 C 839.964844 583.667969 840.210938 580.933594 840.488281 578.308594 C 840.652344 581.117188 840.90625 583.960938 840.988281 586.785156 L 841.011719 588.226562 C 839.519531 592.980469 837.941406 597.75 836.257812 602.523438 Z M 820 654.558594 C 818.519531 657.746094 817.429688 660.714844 816.207031 663.363281 C 813.824219 668.691406 812.210938 673.445312 810.542969 678.671875 C 799.570312 694.714844 787.75 710.722656 774.964844 725.929688 C 783.171875 714.3125 791.054688 702.492188 797.839844 690.042969 L 800.074219 690.375 C 798 693.078125 796.019531 695.828125 793.882812 698.46875 C 793.117188 701.703125 793.421875 702.238281 794.476562 701.054688 C 795.566406 699.898438 797.269531 696.949219 799.242188 693.253906 C 801.199219 689.550781 803.695312 685.257812 805.875 681.09375 C 808.074219 676.941406 810.328125 673.121094 812.398438 670.664062 L 811.019531 669.566406 C 815.496094 661.359375 818.195312 656.410156 819.957031 653.183594 C 821.675781 649.925781 822.472656 648.398438 823.257812 647.09375 C 823.574219 646.546875 823.890625 646.011719 824.234375 645.414062 C 822.726562 648.796875 821.199219 651.769531 820 654.558594 Z M 817.632812 675.738281 C 816.816406 677.132812 816.003906 678.515625 815.1875 679.871094 C 815.214844 679.414062 816.636719 676.507812 818.992188 671.964844 Z M 791.824219 714.269531 C 791.046875 715.304688 790.410156 716.164062 789.929688 716.832031 C 790.335938 716.195312 790.769531 715.535156 791.238281 714.855469 C 792.820312 712.835938 794.371094 710.859375 795.859375 708.964844 C 795.835938 708.996094 795.804688 709.039062 795.78125 709.074219 C 794.234375 711.105469 792.902344 712.855469 791.824219 714.269531 Z M 827.648438 636.5625 C 824.960938 643.769531 824.597656 643.144531 824.21875 642.878906 C 824.179688 642.851562 824.144531 642.835938 824.105469 642.820312 C 824.757812 640.84375 825.429688 638.84375 826.164062 636.757812 C 826.695312 635.0625 827.253906 633.289062 827.808594 631.53125 C 828.632812 631.066406 828.761719 632.550781 827.648438 636.5625 Z M 638.78125 825.015625 L 646.246094 821.6875 L 637.683594 826.65625 C 637.285156 826.429688 636.757812 826.222656 636.03125 826.125 C 636.953125 825.761719 637.875 825.40625 638.78125 825.015625 Z M 565.289062 848.210938 L 564.4375 848.230469 C 564.464844 848.222656 564.480469 848.21875 564.507812 848.210938 C 564.785156 848.203125 565.046875 848.183594 565.320312 848.171875 C 565.3125 848.1875 565.296875 848.195312 565.289062 848.210938 Z M 380.4375 826.492188 C 381.84375 827.207031 383.398438 827.929688 385.234375 828.679688 C 386.097656 828.554688 386.933594 828.433594 386.144531 827.933594 C 387.066406 828.335938 388.011719 828.734375 389.015625 829.136719 C 391.050781 830.859375 387.480469 830.347656 386.054688 830.398438 C 374.320312 825.894531 379.589844 827.121094 380.4375 826.492188 Z M 808.671875 641.683594 C 806.558594 645.414062 804.675781 648.777344 803.054688 652.023438 C 801.4375 655.269531 800.117188 658.414062 798.75 661.5 C 797.277344 664.53125 795.832031 667.542969 794.175781 670.605469 C 793.347656 672.140625 792.46875 673.6875 791.507812 675.253906 C 790.519531 676.804688 789.363281 678.324219 788.144531 679.902344 C 790.449219 675.65625 792.367188 671.210938 794.378906 666.832031 C 799.726562 658 804.675781 648.902344 809.203125 639.5625 C 809.089844 640.109375 808.925781 640.78125 808.671875 641.683594 Z M 781.34375 689.152344 C 779.800781 691.148438 778.515625 692.238281 777.703125 691.746094 C 781.742188 686.253906 785.628906 680.640625 789.335938 674.894531 C 788.433594 676.691406 787.460938 678.59375 786.425781 680.4375 C 784.65625 683.746094 782.882812 686.964844 781.34375 689.152344 Z M 387.417969 182.773438 C 390.386719 182.222656 393.761719 181.238281 397.417969 180.183594 C 395.089844 181.011719 392.769531 181.863281 390.46875 182.742188 Z M 184.257812 359.890625 L 185.277344 356.199219 C 185.945312 354.816406 186.617188 353.445312 187.292969 352.097656 C 187.304688 352.53125 186.164062 355.398438 184.257812 359.890625 Z M 206.984375 317.695312 C 207.648438 316.652344 208.191406 315.789062 208.601562 315.121094 C 208.261719 315.753906 207.894531 316.414062 207.5 317.097656 C 206.144531 319.128906 204.8125 321.121094 203.535156 323.035156 C 203.558594 323 203.582031 322.957031 203.605469 322.921875 C 204.925781 320.882812 206.0625 319.121094 206.984375 317.695312 Z M 870.4375 477.652344 C 868.359375 460.53125 868.171875 482.289062 866.484375 473.425781 C 867.664062 468.679688 867.859375 462.621094 867.199219 455.980469 C 866.789062 452.671875 866.234375 449.203125 865.613281 445.664062 C 865.292969 443.898438 864.96875 442.105469 864.640625 440.308594 C 864.269531 438.515625 863.796875 436.726562 863.378906 434.929688 C 862.519531 431.339844 861.667969 427.746094 860.910156 424.210938 C 860.171875 420.667969 859.1875 417.253906 858.566406 413.914062 C 857.894531 410.582031 857.4375 407.351562 857.175781 404.289062 C 856.800781 401.261719 856.695312 398.386719 856.945312 395.707031 C 851.144531 376.136719 843.355469 356.066406 833.574219 336.542969 C 823.835938 317.003906 812.054688 298.0625 798.859375 280.519531 C 785.683594 262.960938 771.09375 246.804688 755.988281 232.5 C 740.890625 218.179688 725.296875 205.714844 710.289062 195.039062 C 711.207031 195.894531 712.078125 196.804688 712.972656 197.6875 C 709.09375 195.445312 702.128906 191.132812 696.976562 187.222656 C 692.816406 184.296875 689.671875 181.890625 689.832031 181.261719 L 685.621094 181.847656 C 679.554688 178.59375 677.390625 177.15625 677.289062 176.257812 C 677.1875 175.363281 679.117188 175.125 680.976562 174.824219 C 684.628906 174.328125 688.117188 173.371094 673.820312 166.355469 C 680.726562 170.769531 680.59375 172.339844 677.488281 172.09375 C 674.347656 171.898438 668.375 169.65625 663.058594 166.984375 C 665.285156 168.761719 663.269531 172.613281 668.976562 175.328125 C 673.480469 178.734375 678.050781 181.925781 682.3125 185.601562 C 682.980469 184.734375 684.898438 185.054688 687.53125 186.109375 C 690.144531 187.199219 693.574219 188.855469 696.925781 191.171875 C 700.324219 193.410156 703.871094 195.9375 707.027344 198.277344 C 710.152344 200.671875 712.777344 203.039062 714.601562 204.605469 C 714.289062 204.535156 713.945312 204.429688 713.617188 204.34375 C 710.660156 202.285156 711.019531 202.675781 712.65625 204.085938 C 710.296875 203.382812 707.585938 202.277344 704.554688 200.78125 C 700.632812 198.875 696.375 196.085938 692.054688 192.035156 C 681.320312 186.222656 670.78125 180.511719 660.082031 175.003906 C 664.414062 179.371094 667.871094 183.871094 680.476562 190.5625 C 669.328125 182.945312 689.082031 193.644531 679.957031 186.890625 C 682.988281 188.183594 686.023438 189.980469 689.179688 192.09375 C 692.371094 194.144531 695.445312 196.90625 698.898438 199.609375 C 700.621094 200.972656 702.402344 202.378906 704.25 203.839844 C 706.074219 205.328125 707.929688 206.910156 709.917969 208.457031 C 713.871094 211.578125 718.308594 214.613281 723.050781 217.9375 C 716.253906 213.191406 719.933594 213.566406 723.683594 215.847656 C 726.480469 218.480469 729.898438 221.269531 733.441406 224.367188 C 736.929688 227.53125 740.6875 230.828125 744.476562 234.097656 C 748.117188 237.523438 751.761719 240.949219 755.191406 244.175781 C 758.652344 247.371094 761.566406 250.703125 764.21875 253.453125 C 764.109375 252.664062 764.519531 252.316406 765 252.21875 C 769.371094 257.410156 771.980469 260.949219 774.671875 264.648438 C 775.992188 266.511719 777.34375 268.410156 778.910156 270.609375 C 780.421875 272.84375 781.964844 275.519531 783.90625 278.730469 C 791.914062 290.21875 800.019531 303.121094 807.949219 316.671875 C 815.847656 330.257812 822.945312 344.839844 829.285156 359.449219 C 841.4375 388.890625 848.878906 419.109375 849.773438 442.519531 C 849.730469 443.398438 849.679688 444.113281 849.617188 444.695312 C 849.359375 442.953125 849.089844 441.214844 848.738281 439.488281 L 846.789062 429.84375 L 846.605469 432.425781 C 843.042969 416.980469 838.617188 402.894531 834.398438 389.164062 C 833.226562 385.769531 832.058594 382.394531 830.894531 379.035156 C 829.714844 375.679688 828.707031 372.269531 827.367188 368.992188 C 824.78125 362.40625 822.523438 355.667969 819.636719 349.121094 C 821.859375 354.296875 823.695312 359.632812 825.546875 364.941406 C 824.484375 363.847656 820.929688 355.414062 817.703125 348.3125 C 817.605469 349.007812 818.128906 350.691406 818.9375 352.816406 C 819.359375 353.871094 819.828125 355.046875 820.316406 356.269531 C 820.773438 357.503906 821.242188 358.785156 821.707031 360.039062 C 823.566406 365.046875 825.242188 369.585938 824.292969 369.125 C 821.664062 362.847656 819.960938 357.773438 818.113281 353.574219 C 816.351562 349.335938 814.957031 345.730469 813.585938 342.113281 C 812.222656 338.492188 810.585938 335.003906 808.734375 330.773438 C 807.769531 328.675781 806.730469 326.40625 805.570312 323.890625 C 804.257812 321.449219 802.8125 318.765625 801.1875 315.75 C 798.871094 313.949219 806.851562 332.738281 794.378906 314.257812 C 797.410156 314.453125 787.261719 297.804688 797.425781 308.910156 C 785.257812 293.882812 790.761719 295.609375 779.347656 284.894531 C 780.578125 286.292969 782.183594 288.636719 783.78125 290.976562 C 785.644531 295.800781 777.820312 285.289062 774.320312 281.316406 C 769.84375 273.605469 768.039062 268.605469 758.433594 257.804688 C 754.875 254.15625 751.0625 250.769531 747.269531 247.378906 L 741.59375 242.285156 C 739.660156 240.632812 737.664062 239.054688 735.707031 237.4375 C 735.023438 236.347656 736.425781 236.910156 736.425781 236.910156 C 733.660156 234.546875 730.867188 232.160156 728.070312 229.765625 L 719.464844 222.839844 L 715.199219 219.359375 C 713.738281 218.261719 712.285156 217.164062 710.839844 216.074219 C 707.9375 213.898438 705.0625 211.746094 702.238281 209.632812 C 696.484375 205.558594 690.808594 201.773438 685.4375 198.34375 C 679.925781 195.121094 674.789062 192.117188 670.011719 189.773438 C 668.511719 189.550781 665.816406 188.777344 665.238281 188.984375 C 664.621094 189.253906 666.265625 190.21875 673.027344 194.164062 C 667.339844 191.890625 660.9375 188.734375 654.738281 184.929688 C 651.5625 183.175781 648.371094 181.386719 645.285156 179.59375 C 642.191406 177.824219 639.226562 175.996094 636.3125 174.601562 C 640.019531 175.203125 643.589844 176.164062 647.246094 176.984375 C 630.441406 169.378906 611.804688 161.273438 592.769531 155.46875 C 573.785156 149.589844 554.589844 145.75 537.871094 144.761719 L 543.761719 147.425781 C 541.800781 147.1875 539.839844 146.949219 537.886719 146.714844 C 535.925781 146.542969 533.96875 146.371094 532.023438 146.199219 C 528.136719 145.820312 524.285156 145.445312 520.492188 145.078125 C 516.695312 144.765625 512.949219 144.601562 509.296875 144.339844 C 505.640625 144.15625 502.070312 143.734375 498.605469 143.753906 C 495.140625 143.695312 491.78125 143.640625 488.566406 143.585938 C 485.347656 143.539062 482.265625 143.488281 479.351562 143.703125 C 473.523438 144.007812 468.351562 144.402344 464.0625 145.019531 C 475.632812 145.839844 471.621094 146.496094 463.984375 147.144531 C 456.367188 148.191406 445.03125 149.101562 441.820312 150.226562 C 443.261719 150.066406 444.746094 149.898438 446.269531 149.726562 C 447.796875 149.597656 449.359375 149.46875 450.949219 149.335938 C 454.121094 149.042969 457.390625 148.699219 460.664062 148.328125 C 463.929688 147.890625 467.222656 147.683594 470.425781 147.4375 C 473.628906 147.171875 476.746094 146.914062 479.683594 146.671875 C 485.554688 146.136719 490.726562 146.140625 494.410156 145.960938 C 497.101562 145.878906 498.984375 145.855469 499.800781 145.933594 L 499.011719 145.710938 C 506.019531 145.554688 513.042969 145.714844 520.078125 145.792969 L 530.609375 146.398438 C 534.125 146.617188 537.65625 146.75 541.148438 147.199219 L 540.328125 149.710938 C 541.863281 147.085938 556.003906 149.558594 568.476562 153.078125 C 571.621094 153.839844 574.632812 154.777344 577.351562 155.625 C 580.070312 156.453125 582.503906 157.15625 584.445312 157.636719 C 588.328125 158.589844 590.273438 158.636719 588.636719 156.910156 C 600.078125 159.964844 603.960938 163.648438 602.019531 164.46875 C 612.558594 167.339844 623.035156 170.59375 633.304688 174.460938 C 636.304688 176.859375 628.839844 176.53125 625.386719 174.882812 C 622.4375 173.566406 618.878906 172.417969 615.078125 171.226562 C 611.273438 170.054688 607.285156 168.671875 603.242188 167.507812 C 595.136719 165.230469 587.246094 162.574219 581.503906 159.910156 C 576.164062 159.339844 578.378906 160.628906 579.058594 161.40625 C 579.398438 161.800781 579.363281 162.066406 577.828125 161.910156 C 577.0625 161.835938 575.921875 161.65625 574.265625 161.335938 C 572.613281 160.996094 570.441406 160.535156 567.578125 160.078125 C 548.804688 154.238281 527.257812 151.511719 507.191406 150.789062 C 487.097656 150.085938 468.460938 150.933594 454.496094 151.375 C 460.84375 151.617188 467.222656 150.988281 459.410156 153.152344 C 453.101562 153.167969 446.730469 152.949219 440.398438 153.386719 C 436.542969 154.117188 433.183594 154.9375 430.140625 155.75 C 427.09375 156.566406 424.410156 157.621094 421.828125 158.441406 C 416.679688 160.195312 411.996094 161.34375 406.359375 162.085938 C 404.566406 163.382812 411.375 161.855469 420.007812 160.589844 C 428.574219 158.976562 438.988281 157.890625 443.96875 157.632812 C 436.964844 161.589844 428.929688 161.914062 420.695312 162.84375 C 412.425781 163.425781 404.007812 164.691406 396.820312 168.828125 C 393.9375 171.359375 403.679688 168.59375 412.6875 166.148438 C 421.804688 164.144531 430.132812 162.414062 424.003906 165.871094 L 413.542969 167.636719 L 403.171875 169.890625 C 406.914062 170.050781 410.847656 169.363281 414.84375 168.632812 C 418.851562 167.9375 422.863281 166.933594 426.617188 165.984375 C 430.355469 164.960938 433.898438 164.355469 436.851562 164.027344 C 439.804688 163.726562 442.1875 163.828125 443.679688 164.699219 C 441.816406 165.332031 439.046875 165.945312 435.894531 166.507812 C 434.316406 166.785156 432.648438 167.054688 430.945312 167.304688 C 429.257812 167.617188 427.542969 167.933594 425.871094 168.238281 C 419.175781 169.457031 413.023438 170.136719 411.816406 170.195312 C 408.824219 171.421875 411.882812 171.273438 414.332031 171.417969 C 416.8125 171.652344 418.625 171.953125 413.234375 173.777344 C 407.203125 174.421875 403.015625 175.804688 399.15625 177.078125 C 395.308594 178.40625 391.851562 179.863281 386.996094 180.332031 L 391.472656 176.769531 C 383.078125 179.1875 361.800781 185.871094 352.902344 190.730469 C 351.972656 189.535156 357.15625 186.035156 363.832031 182.417969 C 367.226562 180.761719 370.984375 179.078125 374.488281 177.601562 C 376.242188 176.871094 377.925781 176.164062 379.480469 175.59375 C 381.054688 175.066406 382.484375 174.613281 383.691406 174.265625 C 375.023438 175.25 359.695312 181.8125 351.671875 185.59375 L 359.355469 182.917969 L 363.1875 181.589844 L 367.089844 180.445312 C 344.945312 189.839844 351.652344 191.320312 327.121094 203.144531 C 317.347656 208.761719 315.90625 209.152344 315.824219 208.105469 C 315.769531 207.097656 317.253906 204.875 313.808594 206.261719 C 303.335938 213.589844 301.5625 214.859375 302.5625 214.457031 C 303.527344 213.984375 307.453125 212.082031 308.523438 213.132812 C 300.140625 218.644531 294.953125 222.058594 289.109375 225.898438 C 286.246094 227.910156 283.226562 230.039062 279.621094 232.679688 C 275.960938 235.253906 272.066406 238.773438 267.035156 243.019531 C 272.589844 237.824219 275.773438 234.074219 279.414062 230.941406 C 281.203125 229.332031 283.019531 227.765625 285.160156 226.078125 C 287.296875 224.378906 289.761719 222.554688 292.992188 220.644531 L 287.859375 221.410156 C 283.953125 224.773438 280.355469 228.015625 276.875 231.234375 C 273.425781 234.488281 270.285156 237.960938 266.980469 241.378906 C 263.628906 244.746094 260.535156 248.5625 257.089844 252.4375 C 255.398438 254.410156 253.554688 256.332031 251.808594 258.507812 C 250.039062 260.648438 248.199219 262.871094 246.277344 265.199219 L 243.410156 265.421875 C 243.113281 266.007812 240.664062 268.617188 236.984375 273.0625 C 235.105469 275.246094 232.871094 277.84375 230.347656 280.777344 C 227.9375 283.8125 225.253906 287.195312 222.347656 290.855469 C 210.878906 305.59375 197.351562 325.894531 186.714844 347.121094 C 175.917969 368.273438 168.109375 390.203125 163.929688 406.117188 C 161.601562 414.019531 160.539062 420.519531 159.785156 424.578125 C 159.125 428.511719 159.074219 430.226562 159.792969 429.140625 C 159.667969 428.9375 161.230469 421.984375 164.019531 411.527344 C 164.878906 408.695312 165.816406 405.605469 166.816406 402.3125 C 167.320312 400.667969 167.84375 398.976562 168.378906 397.238281 C 168.992188 395.53125 169.621094 393.785156 170.265625 392.003906 C 171.570312 388.449219 172.839844 384.730469 174.285156 381.003906 C 175.824219 377.3125 177.394531 373.558594 178.964844 369.800781 C 180.5625 366.179688 182.21875 362.585938 183.894531 359.058594 L 183.738281 361.109375 C 183.511719 361.640625 183.273438 362.191406 183.027344 362.757812 C 180.867188 367.40625 178.753906 373.5625 176.109375 380.195312 C 174.765625 383.5 173.738281 387.105469 172.476562 390.699219 C 171.285156 394.316406 169.9375 397.957031 168.960938 401.710938 C 159.972656 431.398438 156.710938 461.398438 158.902344 445.5625 C 161.601562 447.859375 157.632812 460.394531 160.644531 460.105469 C 160.183594 463.882812 160.097656 467.535156 159.847656 471.023438 C 159.609375 474.507812 159.378906 477.855469 159.15625 481.082031 C 158.914062 487.546875 158.6875 493.539062 158.476562 499.238281 C 158.398438 504.949219 158.324219 510.363281 158.25 515.671875 C 158.351562 520.984375 158.449219 526.1875 158.550781 531.460938 C 159.105469 509.5 160.886719 486.203125 165.152344 462.144531 C 169.375 438.097656 175.964844 413.296875 185.457031 388.601562 C 187.015625 382.839844 188.386719 377.804688 184.34375 385.195312 C 181 398.1875 176.699219 403.96875 178.621094 394.164062 C 180.648438 387.121094 181.039062 387.6875 181.417969 387.914062 C 181.867188 388.160156 181.980469 387.953125 184.421875 379.675781 C 183.160156 382.144531 181.757812 384.566406 180.648438 387.109375 C 181.996094 383.09375 183.488281 379.6875 184.570312 376.507812 C 185.742188 373.367188 186.566406 370.46875 187.535156 367.859375 C 189.40625 362.621094 190.597656 357.984375 191.800781 352.894531 C 208.6875 323.605469 228.144531 294.132812 251.652344 269.164062 C 257.378906 262.792969 263.597656 257.011719 269.660156 251.207031 C 276.015625 245.738281 282.207031 240.21875 288.8125 235.464844 C 295.207031 230.425781 302.03125 226.238281 308.574219 222.023438 C 311.96875 220.101562 315.34375 218.246094 318.683594 216.453125 C 320.363281 215.570312 322.003906 214.644531 323.695312 213.847656 C 325.402344 213.082031 327.097656 212.320312 328.78125 211.5625 L 336.867188 205.390625 L 345.265625 199.613281 C 345.964844 199.949219 346.980469 200.230469 348.890625 199.816406 C 349.847656 199.621094 351.011719 199.207031 352.507812 198.617188 C 354.015625 198.054688 355.832031 197.253906 358.03125 196.136719 C 356.335938 196.78125 354.054688 197.648438 352.351562 198.296875 C 350.65625 198.964844 349.535156 199.398438 350.019531 198.863281 C 360.8125 194.042969 371.757812 189.5 382.960938 185.707031 C 261.265625 235.488281 175.292969 355.171875 175.292969 494.570312 C 175.292969 678.492188 324.925781 828.125 508.847656 828.125 C 618.714844 828.125 716.332031 774.71875 777.140625 692.515625 C 773.390625 700.710938 776.140625 698.199219 778.480469 696.117188 C 780.886719 693.980469 782.816406 692.359375 776.273438 704.09375 C 779.578125 698.707031 782.921875 693.851562 785.839844 689.046875 C 788.691406 684.203125 791.628906 679.71875 794.257812 675.199219 C 796.863281 670.660156 799.40625 666.230469 801.960938 661.78125 C 804.339844 657.234375 806.726562 652.671875 809.1875 647.96875 C 805.71875 653.136719 804.847656 655.503906 800.390625 662.933594 C 805.066406 653.527344 809.785156 641.371094 813.980469 629.222656 C 817.492188 621.292969 820.703125 613.203125 823.597656 604.96875 C 824.207031 603.65625 824.835938 602.210938 825.5 600.53125 C 826.320312 598.402344 827.019531 595.953125 827.828125 593.304688 C 828.585938 590.636719 829.402344 587.761719 830.265625 584.71875 C 830.769531 582.832031 831.195312 580.839844 831.613281 578.8125 C 838.644531 551.890625 842.398438 523.660156 842.398438 494.570312 C 842.398438 467.976562 839.253906 442.109375 833.347656 417.296875 C 834.371094 419.820312 835.421875 422.570312 836.453125 425.527344 C 837.542969 429.195312 838.585938 433.15625 839.484375 437.296875 C 839.914062 439.367188 840.394531 441.472656 840.671875 443.632812 C 840.9375 445.796875 841.152344 447.988281 841.308594 450.195312 L 838.597656 443.855469 C 843.578125 471.484375 844.453125 502.027344 843.589844 527.644531 C 844.394531 523.964844 845.039062 524.105469 845.449219 526.640625 C 845.652344 527.90625 845.796875 529.769531 845.871094 532.042969 C 845.910156 534.3125 845.734375 536.988281 845.539062 539.890625 C 843.179688 557.601562 844.886719 534.449219 842.902344 541.769531 C 841.777344 544.386719 841.28125 548.351562 840.507812 552.960938 C 839.777344 557.570312 839.3125 562.902344 838.777344 568.300781 C 838.109375 573.691406 837.4375 579.148438 836.828125 584.046875 C 836.046875 588.921875 835.1875 593.226562 834.398438 596.328125 C 834.558594 594.3125 832.132812 602.53125 829.691406 608.1875 C 827.386719 613.894531 825.71875 617.214844 828.410156 605.953125 C 827.292969 609.246094 826.285156 612.441406 825.363281 615.546875 C 824.453125 618.65625 823.355469 621.589844 822.46875 624.488281 C 821.566406 627.386719 820.695312 630.191406 819.851562 632.914062 C 818.945312 635.617188 817.980469 638.210938 817.078125 640.746094 C 815.261719 645.820312 813.472656 650.601562 811.179688 654.941406 C 808.910156 659.285156 806.71875 663.464844 803.679688 667.074219 C 803.246094 669.910156 801.792969 676.726562 798.234375 683.683594 L 796.25 681.941406 L 793.058594 690.894531 C 782.925781 706.8125 773.492188 711.347656 763.496094 727.203125 C 764.558594 725.753906 766.210938 723.585938 767.773438 721.835938 C 769.355469 720.089844 770.6875 718.636719 771.417969 718.84375 C 771.933594 720.277344 766.546875 727.96875 761.886719 734.921875 C 757.0625 741.71875 752.769531 747.644531 756.300781 745.992188 C 759.359375 741.640625 762.503906 737.386719 765.269531 732.855469 C 763.367188 738.417969 775.839844 722.476562 774.714844 726.226562 C 764.234375 738.664062 753.125 750.574219 741.195312 761.441406 C 734.695312 767.640625 727.722656 773.1875 720.917969 778.773438 C 718.40625 780.617188 715.914062 782.460938 713.421875 784.28125 C 718.308594 780.285156 723.269531 776.023438 727.671875 772.058594 C 727.785156 771.949219 727.894531 771.84375 728.011719 771.734375 C 726.085938 773.140625 724.296875 774.449219 722.617188 775.679688 C 720.695312 777.136719 718.9375 778.601562 717.183594 780.148438 C 715.453125 781.726562 713.679688 783.34375 711.734375 785.109375 C 710.90625 785.824219 710.03125 786.585938 709.136719 787.363281 C 706.003906 789.582031 702.847656 791.730469 699.613281 793.699219 C 692.519531 798.457031 685.046875 802.285156 677.859375 806.164062 C 677.773438 806.207031 677.6875 806.242188 677.601562 806.285156 L 681.988281 800.605469 C 676.429688 804.394531 671.925781 807.28125 667.957031 809.691406 C 665.125 811.238281 662.566406 812.570312 660.085938 813.839844 C 660.605469 813.671875 661.039062 813.5625 661.4375 813.480469 C 661.421875 813.488281 661.402344 813.496094 661.390625 813.503906 C 660.664062 813.765625 659.949219 814.019531 659.230469 814.28125 C 659.511719 814.136719 659.800781 813.988281 660.085938 813.839844 C 659.714844 813.960938 659.3125 814.105469 658.847656 814.296875 C 658.363281 814.476562 657.832031 814.710938 657.230469 815 C 656.785156 815.160156 656.328125 815.324219 655.886719 815.484375 L 654.445312 816.417969 C 652.945312 817.203125 651.140625 818.152344 648.871094 819.289062 C 648.921875 819.292969 648.960938 819.300781 649.011719 819.304688 C 650.253906 818.722656 651.445312 818.160156 652.609375 817.605469 L 649.859375 819.390625 C 649.605469 819.355469 649.320312 819.328125 649.011719 819.304688 C 647.894531 819.824219 646.75 820.363281 645.550781 820.941406 C 643.460938 821.949219 641.226562 823.0625 638.773438 824.324219 C 637.648438 824.90625 636.4375 825.476562 635.183594 826.0625 C 634.804688 826.0625 634.386719 826.085938 633.90625 826.152344 C 632.886719 826.28125 631.636719 826.617188 630.023438 827.117188 C 628.402344 827.585938 626.4375 828.273438 624.046875 829.269531 C 625.871094 828.730469 628.328125 828.007812 630.160156 827.464844 C 631.988281 826.902344 633.195312 826.539062 632.644531 827.058594 C 621.640625 830.992188 610.519531 834.675781 599.210938 837.652344 C 600.433594 837.035156 601.65625 836.417969 602.882812 835.820312 C 601.117188 836.660156 599.277344 837.40625 597.417969 838.101562 C 594.003906 838.976562 590.578125 839.8125 587.128906 840.539062 L 589.515625 840.699219 C 585.929688 841.714844 582.351562 842.308594 579.175781 843.035156 C 576.960938 843.484375 574.949219 843.964844 573.140625 844.4375 C 570.027344 845.046875 566.863281 845.683594 563.644531 846.324219 C 558.304688 847.167969 552.898438 847.878906 547.820312 848.390625 C 542.746094 848.890625 537.941406 848.703125 533.875 848.328125 C 533.820312 848.785156 531.214844 849.386719 528.746094 850.023438 C 526.285156 850.695312 523.949219 851.128906 524.507812 851.789062 C 519.503906 851.726562 514.4375 851.625 509.347656 851.484375 C 503.8125 850.914062 498.601562 850.351562 493.585938 849.675781 C 492.019531 849.5 490.472656 849.351562 488.9375 849.226562 C 488.605469 849.109375 488.464844 848.953125 488.601562 848.746094 C 491.574219 848.078125 495.15625 848.011719 498.871094 848.234375 C 502.589844 848.453125 506.4375 848.644531 509.910156 849.019531 C 513.386719 849.351562 516.488281 849.710938 518.660156 849.769531 C 520.824219 849.738281 522.058594 849.488281 521.820312 848.769531 C 518.789062 848.496094 514.871094 848.1875 510.652344 848.089844 C 506.4375 847.914062 501.914062 848.167969 497.632812 847.90625 C 489.070312 847.558594 481.507812 847.355469 479.496094 846.167969 C 475.898438 846.703125 486.007812 848.207031 476.210938 848.457031 C 461.242188 847.15625 463.582031 845.910156 454.832031 843.605469 C 452.046875 843.957031 449.226562 844.425781 446.429688 844.59375 C 446.027344 843.347656 443.089844 842.300781 438.613281 841.34375 C 434.117188 840.472656 428.140625 839.316406 421.597656 838.054688 C 419.960938 837.746094 418.285156 837.4375 416.59375 837.117188 C 416.050781 837.003906 415.503906 836.859375 414.960938 836.734375 C 425.578125 840.085938 436.679688 842.859375 448.394531 845.257812 C 456.582031 846.664062 465.074219 847.925781 473.894531 848.71875 C 471.722656 848.816406 469.5625 848.867188 467.410156 848.867188 C 462.304688 848.328125 457.222656 847.707031 452.203125 846.949219 C 429.796875 843.601562 408.566406 838.011719 391.367188 830.046875 C 394.480469 831.210938 397.855469 832.34375 401.40625 833.390625 C 404.722656 834.21875 408.132812 835.074219 411.523438 835.925781 C 412.675781 836.195312 413.816406 836.464844 414.960938 836.734375 C 413.148438 836.164062 411.320312 835.609375 409.539062 835.003906 C 396.355469 830.632812 383.894531 825.746094 371.621094 820.578125 C 373.640625 822.320312 375.855469 824.03125 379.128906 825.8125 C 377.421875 825.894531 373.964844 825.113281 369.082031 823.523438 C 367.925781 823.097656 366.667969 822.613281 365.355469 822.101562 C 364.773438 821.675781 364.066406 821.273438 363.144531 820.921875 C 358.613281 818.015625 354.039062 815.3125 349.722656 812.132812 C 349.148438 813.003906 347.300781 812.84375 344.722656 812.03125 C 342.890625 811.429688 340.636719 810.566406 338.277344 809.417969 C 334.203125 807.203125 329.96875 804.746094 325.636719 802.097656 C 325.527344 802.03125 325.410156 801.960938 325.304688 801.894531 C 322.160156 799.847656 319.492188 797.789062 317.644531 796.4375 C 317.941406 796.476562 318.28125 796.554688 318.597656 796.609375 C 321.558594 798.347656 321.1875 798.007812 319.53125 796.78125 C 321.824219 797.28125 324.480469 798.132812 327.472656 799.332031 C 331.335938 800.859375 335.585938 803.195312 339.992188 806.730469 C 350.613281 811.472656 361.050781 816.128906 371.621094 820.578125 C 367.183594 816.742188 363.570312 812.722656 351.105469 807.285156 C 362.253906 813.707031 342.695312 804.984375 351.863281 810.734375 C 348.886719 809.730469 345.871094 808.242188 342.71875 806.464844 C 339.535156 804.75 336.410156 802.351562 332.929688 800.03125 C 331.195312 798.863281 329.398438 797.65625 327.535156 796.402344 C 325.695312 795.121094 323.8125 793.753906 321.8125 792.429688 C 317.824219 789.753906 313.390625 787.191406 308.636719 784.378906 C 315.445312 788.394531 311.921875 788.308594 308.191406 786.410156 C 305.339844 784.113281 301.886719 781.714844 298.289062 779.027344 C 294.746094 776.273438 290.933594 773.417969 287.09375 770.589844 C 283.382812 767.597656 279.667969 764.605469 276.171875 761.792969 C 272.648438 759.007812 269.636719 756.058594 266.914062 753.632812 C 267.074219 754.375 266.710938 754.738281 266.265625 754.863281 C 261.730469 750.253906 258.992188 747.078125 256.160156 743.757812 C 254.769531 742.089844 253.347656 740.382812 251.699219 738.402344 C 250.097656 736.390625 248.4375 733.960938 246.355469 731.050781 C 237.90625 720.722656 229.261719 709.050781 220.730469 696.753906 C 212.234375 684.417969 204.421875 671.074219 197.324219 657.65625 C 183.625 630.5625 174.34375 602.390625 171.777344 580.203125 C 171.582031 573.105469 172.816406 576.582031 174.234375 581.003906 C 175.804688 585.398438 177.453125 590.792969 177.285156 587.890625 C 176.203125 584.933594 175.167969 582.109375 174.183594 579.414062 C 173.28125 576.683594 172.425781 574.085938 171.613281 571.613281 C 170.75 569.140625 169.929688 566.792969 169.152344 564.566406 C 168.441406 562.324219 167.769531 560.199219 167.132812 558.199219 C 165.835938 554.191406 164.523438 550.671875 163.367188 547.59375 C 162.316406 544.5 161.289062 541.867188 160.285156 539.660156 C 157.574219 533.765625 155.109375 530.988281 152.765625 530.746094 C 150.546875 510.601562 149.902344 490.640625 150.757812 471.472656 C 150.289062 476.125 149.996094 478.742188 149.523438 480.21875 C 149.054688 481.691406 148.480469 482.023438 147.890625 482.113281 C 146.707031 482.304688 145.46875 481.527344 144.90625 487.1875 C 145.835938 499.238281 146.992188 471.769531 147.628906 487.730469 C 147.003906 490.398438 146.582031 492.644531 146.308594 494.566406 C 146.136719 496.492188 146.09375 498.09375 146.144531 499.484375 C 146.25 502.257812 146.71875 504.171875 147.203125 506.121094 C 147.691406 508.074219 148.195312 510.058594 148.367188 512.992188 C 148.675781 515.921875 148.730469 519.789062 148.1875 525.578125 L 145.121094 513.527344 C 146.117188 522.21875 147.464844 531.976562 149.1875 542.25 C 149.066406 543.585938 149.132812 545.519531 149.574219 548.324219 C 150.511719 553.011719 151.058594 554.574219 151.414062 554.65625 C 152.238281 558.972656 153.132812 563.339844 154.09375 567.726562 C 154.144531 568.050781 154.175781 568.355469 154.234375 568.683594 C 154.863281 571.800781 155.644531 575.054688 156.496094 578.371094 C 156.871094 579.8125 157.253906 581.269531 157.640625 582.734375 C 159.796875 591.179688 162.210938 599.527344 164.914062 607.519531 L 161.144531 605.441406 C 162.402344 608.207031 163.675781 611.296875 164.847656 614.414062 C 165.980469 617.546875 167.113281 620.679688 168.144531 623.523438 C 168.210938 623.714844 168.269531 623.894531 168.332031 624.085938 C 168.339844 624.457031 168.394531 624.851562 168.386719 625.21875 C 168.84375 626.410156 169.328125 627.605469 169.800781 628.800781 C 170.671875 632.011719 171.007812 634.476562 170.484375 635.480469 C 167.128906 626.507812 163.984375 619.59375 161.621094 613.65625 C 159.105469 607.777344 156.769531 603.105469 154.996094 598.726562 C 153.144531 594.371094 151.402344 590.449219 150.066406 586.109375 C 148.855469 581.738281 147.902344 576.988281 147.320312 571.109375 C 149.015625 573.667969 148.164062 572.371094 148.316406 569.757812 C 146.40625 565.214844 144.148438 558.617188 142.074219 550.824219 C 141.230469 546.898438 140.460938 542.671875 139.851562 538.269531 C 139.570312 536.066406 139.234375 533.828125 139.121094 531.546875 C 139.019531 529.261719 138.96875 526.949219 138.984375 524.628906 L 141.308594 531.480469 C 138.324219 502.179688 139.863281 470.160156 142.828125 443.433594 C 141.691406 447.21875 141.027344 447.019531 140.804688 444.335938 C 140.691406 442.996094 140.691406 441.035156 140.796875 438.648438 C 140.9375 436.269531 141.335938 433.488281 141.777344 430.46875 C 145.671875 412.132812 142.023438 436.214844 144.6875 428.71875 C 146.070312 426.066406 146.910156 421.960938 148.089844 417.203125 C 149.226562 412.4375 150.140625 406.898438 151.132812 401.292969 C 152.265625 395.707031 153.410156 390.054688 154.441406 384.980469 C 155.652344 379.945312 156.898438 375.511719 157.96875 372.332031 C 157.644531 374.425781 160.839844 366.023438 163.847656 360.304688 C 166.71875 354.519531 168.730469 351.183594 165.007812 362.746094 C 166.441406 359.390625 167.753906 356.128906 168.96875 352.953125 C 170.171875 349.773438 171.554688 346.796875 172.714844 343.835938 C 173.890625 340.875 175.027344 338.011719 176.132812 335.230469 C 177.296875 332.476562 178.511719 329.84375 179.664062 327.265625 C 181.972656 322.105469 184.226562 317.242188 186.976562 312.890625 C 189.699219 308.527344 192.324219 304.332031 195.796875 300.800781 C 196.480469 297.871094 198.546875 290.855469 202.828125 283.867188 L 204.761719 285.851562 L 208.820312 276.742188 C 220.703125 260.90625 230.933594 256.921875 242.664062 241.140625 C 241.4375 242.570312 239.535156 244.703125 237.757812 246.414062 C 235.96875 248.109375 234.453125 249.523438 233.707031 249.246094 C 233.28125 247.703125 239.535156 240.097656 244.972656 233.199219 C 250.566406 226.476562 255.53125 220.625 251.707031 222.0625 C 248.152344 226.371094 244.527344 230.566406 241.265625 235.089844 C 243.730469 229.363281 229.058594 245.441406 230.882812 241.167969 C 221.25 252.777344 211.941406 264.632812 203.753906 277.246094 L 201.441406 276.722656 C 203.828125 274.058594 206.121094 271.339844 208.570312 268.753906 C 209.632812 265.429688 209.355469 264.84375 208.15625 266 C 206.921875 267.117188 204.902344 270.066406 202.542969 273.773438 C 200.199219 277.492188 197.242188 281.78125 194.628906 285.960938 C 191.992188 290.128906 189.328125 293.941406 186.964844 296.34375 L 188.320312 297.605469 C 182.976562 305.828125 179.753906 310.785156 177.648438 314.023438 C 175.59375 317.289062 174.636719 318.820312 173.710938 320.128906 C 172.800781 321.441406 171.984375 322.570312 170.386719 325.136719 C 169.601562 326.433594 168.609375 328.082031 167.28125 330.277344 C 166.101562 332.558594 164.625 335.402344 162.746094 339.023438 C 162.003906 342.339844 161.152344 345.59375 160.515625 348.914062 C 160.398438 349.65625 162.871094 342.800781 165.667969 335.925781 C 166.386719 334.210938 167.105469 332.496094 167.78125 330.886719 C 168.527344 329.308594 169.300781 327.875 169.984375 326.664062 C 171.363281 324.246094 172.492188 322.785156 173.035156 323.214844 C 172.046875 325.628906 170.972656 328.132812 169.839844 330.703125 C 168.789062 333.320312 167.707031 336.019531 166.601562 338.777344 C 165.476562 341.523438 164.324219 344.332031 163.160156 347.175781 C 162.015625 350.019531 161.039062 352.980469 159.960938 355.90625 C 158.914062 358.84375 157.867188 361.792969 156.824219 364.726562 C 155.851562 367.679688 155.039062 370.675781 154.191406 373.605469 C 153.390625 376.542969 152.601562 379.441406 151.828125 382.277344 C 151.128906 385.125 150.652344 387.964844 150.152344 390.6875 C 150.203125 387.738281 150.167969 384.742188 150.308594 381.78125 L 150.738281 374.671875 C 150.261719 378.273438 148.167969 382.617188 145.894531 388.359375 C 144.503906 391.703125 142.921875 395.480469 141.339844 399.765625 C 139.96875 404.101562 138.617188 408.949219 137.5 414.351562 L 140.367188 405.292969 C 141.3125 402.277344 142.257812 399.269531 143.414062 396.320312 C 143.226562 400.382812 142.695312 405.714844 141.523438 411.722656 C 140.261719 417.710938 139.089844 424.539062 137.742188 431.640625 C 137.40625 433.414062 137.0625 435.207031 136.722656 437.011719 C 136.464844 438.824219 136.203125 440.648438 135.945312 442.476562 C 135.464844 446.136719 134.988281 449.800781 134.515625 453.402344 C 133.734375 460.628906 133.605469 467.671875 133.695312 473.914062 C 134.226562 467.125 134.769531 460.359375 136.132812 459.34375 C 136.539062 462.242188 136.242188 467.660156 135.667969 473.523438 C 135.199219 479.394531 134.78125 485.730469 134.246094 490.40625 C 133.085938 489.488281 132.449219 485.339844 132.097656 479.703125 C 132.027344 478.289062 131.957031 476.789062 131.882812 475.230469 C 131.910156 473.664062 131.945312 472.039062 131.980469 470.378906 C 132.105469 467.046875 132.234375 463.574219 132.359375 460.179688 C 132.445312 456.777344 132.757812 453.46875 133.035156 450.453125 C 133.292969 447.441406 133.496094 444.71875 133.597656 442.503906 C 133.789062 438.078125 133.558594 435.679688 132.453125 437.078125 C 131.464844 444.21875 130.710938 451.128906 130.519531 457.753906 C 130.480469 464.390625 130.515625 470.707031 130.816406 476.65625 C 131.253906 482.613281 131.6875 488.195312 131.914062 493.375 C 132.273438 498.558594 132.609375 503.34375 132.40625 507.730469 C 131.414062 503.039062 130.332031 498.3125 129.421875 493.550781 C 129.722656 498.179688 130.195312 502.796875 130.578125 507.40625 L 130.671875 503.328125 C 131.867188 506.257812 131.796875 510.683594 131.859375 515.769531 C 131.996094 520.847656 132.003906 526.601562 132.769531 532.078125 L 129.507812 524.945312 C 129.796875 528.375 129.925781 531.816406 130.347656 535.230469 L 131.609375 545.480469 L 132.011719 542.789062 C 134.496094 559.230469 137.992188 574.320312 141.300781 589.023438 C 142.253906 592.671875 143.203125 596.292969 144.148438 599.902344 C 145.113281 603.503906 145.894531 607.152344 147.03125 610.6875 C 149.203125 617.789062 151.023438 625.015625 153.519531 632.097656 C 151.609375 626.507812 150.117188 620.777344 148.609375 615.074219 C 149.632812 616.304688 152.671875 625.410156 155.476562 633.097656 C 155.636719 632.382812 155.222656 630.574219 154.546875 628.285156 C 154.191406 627.148438 153.792969 625.882812 153.382812 624.566406 C 153.003906 623.238281 152.613281 621.859375 152.230469 620.511719 C 150.691406 615.125 149.300781 610.242188 150.257812 610.800781 C 152.5 617.578125 153.875 623.019531 155.46875 627.5625 C 156.972656 632.140625 158.140625 636.019531 159.285156 639.914062 C 160.417969 643.8125 161.851562 647.59375 163.441406 652.167969 C 164.28125 654.4375 165.191406 656.894531 166.199219 659.621094 C 167.378906 662.28125 168.675781 665.207031 170.128906 668.488281 C 172.410156 670.558594 165.574219 650.261719 177.136719 670.597656 C 173.976562 670.148438 183.253906 688.382812 173.515625 675.945312 C 185.035156 692.644531 179.414062 690.394531 190.492188 702.523438 C 189.316406 700.957031 187.824219 698.378906 186.34375 695.804688 C 184.785156 690.605469 192.121094 702.230469 195.460938 706.667969 C 199.523438 715.097656 201.011719 720.46875 210.1875 732.539062 C 213.617188 736.640625 217.332031 740.492188 221.027344 744.347656 L 226.554688 750.128906 C 228.441406 752.011719 230.402344 753.824219 232.320312 755.671875 C 232.949219 756.871094 231.527344 756.164062 231.527344 756.164062 C 234.230469 758.859375 236.957031 761.582031 239.691406 764.3125 L 248.136719 772.25 L 252.316406 776.230469 C 253.753906 777.496094 255.1875 778.761719 256.613281 780.019531 C 259.476562 782.527344 262.308594 785.011719 265.089844 787.449219 C 270.785156 792.175781 276.414062 796.589844 281.757812 800.609375 C 287.261719 804.425781 292.394531 807.980469 297.203125 810.816406 C 298.757812 811.171875 301.511719 812.195312 302.132812 812.027344 C 302.796875 811.796875 301.15625 810.652344 294.402344 805.980469 C 300.167969 808.816406 306.609375 812.632812 312.789062 817.113281 C 315.96875 819.199219 319.164062 821.332031 322.246094 823.453125 C 325.34375 825.550781 328.296875 827.703125 331.230469 829.394531 C 327.40625 828.46875 323.746094 827.179688 319.984375 826.023438 C 336.953125 835.332031 355.796875 845.308594 375.238281 852.914062 C 394.621094 860.59375 414.390625 866.152344 431.800781 868.53125 L 425.851562 865.269531 C 427.886719 865.679688 429.917969 866.085938 431.941406 866.488281 C 433.980469 866.824219 436.011719 867.160156 438.03125 867.496094 C 442.066406 868.207031 446.066406 868.910156 450.003906 869.601562 C 453.949219 870.234375 457.855469 870.703125 461.65625 871.269531 C 465.464844 871.757812 469.164062 872.488281 472.789062 872.746094 C 476.414062 873.085938 479.917969 873.414062 483.277344 873.730469 C 486.640625 874.035156 489.863281 874.335938 492.925781 874.351562 C 499.046875 874.496094 504.488281 874.503906 509.023438 874.203125 C 496.988281 872.414062 501.234375 872.050781 509.277344 871.984375 C 517.328125 871.503906 529.261719 871.464844 532.707031 870.546875 C 531.1875 870.597656 529.621094 870.652344 528.015625 870.710938 C 526.40625 870.722656 524.761719 870.734375 523.089844 870.742188 C 519.746094 870.792969 516.300781 870.886719 512.847656 871.015625 C 509.394531 871.210938 505.933594 871.160156 502.5625 871.160156 C 499.191406 871.183594 495.910156 871.199219 492.820312 871.21875 C 486.636719 871.304688 481.222656 870.882812 477.355469 870.777344 C 474.535156 870.644531 472.5625 870.519531 471.71875 870.371094 L 472.523438 870.667969 C 465.179688 870.265625 457.847656 869.535156 450.496094 868.886719 L 439.523438 867.402344 C 435.867188 866.894531 432.1875 866.472656 428.566406 865.71875 L 429.628906 863.15625 C 427.808594 865.78125 413.21875 862.054688 400.457031 857.367188 C 397.230469 856.320312 394.152344 855.097656 391.378906 853.992188 C 388.601562 852.90625 386.113281 851.972656 384.121094 851.316406 C 380.132812 850.007812 378.101562 849.800781 379.679688 851.742188 C 367.953125 847.625 364.1875 843.457031 366.285156 842.757812 C 355.492188 838.90625 344.796875 834.660156 334.367188 829.789062 C 331.421875 827.035156 339.203125 827.980469 342.683594 829.980469 C 345.660156 831.597656 349.289062 833.085938 353.167969 834.640625 C 357.058594 836.171875 361.117188 837.9375 365.253906 839.480469 C 373.546875 842.515625 381.585938 845.925781 387.378906 849.175781 C 392.917969 850.203125 390.707031 848.675781 390.058594 847.804688 C 389.730469 847.367188 389.789062 847.09375 391.382812 847.378906 C 392.179688 847.519531 393.359375 847.800781 395.066406 848.269531 C 396.765625 848.753906 399 849.410156 401.957031 850.121094 C 421.125 857.738281 443.445312 862.328125 464.375 864.695312 C 485.339844 867.050781 504.898438 867.660156 519.542969 868.324219 C 512.925781 867.5625 506.199219 867.703125 514.546875 866.066406 C 521.144531 866.5625 527.796875 867.300781 534.449219 867.355469 C 538.542969 866.898438 542.121094 866.316406 545.371094 865.710938 C 548.621094 865.097656 551.515625 864.210938 554.28125 863.5625 C 559.808594 862.144531 564.800781 861.316406 570.757812 860.992188 C 572.734375 859.78125 565.488281 860.828125 556.359375 861.460938 C 547.269531 862.460938 536.289062 862.757812 531.058594 862.625 C 538.703125 859.050781 547.136719 859.359375 555.820312 859.050781 C 564.515625 859.105469 573.425781 858.460938 581.277344 854.707031 C 584.496094 852.292969 574.082031 854.402344 564.464844 856.234375 C 554.765625 857.597656 545.914062 858.734375 552.605469 855.613281 L 563.6875 854.613281 L 574.71875 853.085938 C 570.816406 852.617188 566.648438 853.023438 562.40625 853.464844 C 558.160156 853.867188 553.882812 854.597656 549.878906 855.285156 C 545.886719 856.058594 542.132812 856.402344 539.019531 856.507812 C 535.902344 856.589844 533.421875 856.289062 531.929688 855.257812 C 533.929688 854.746094 536.875 854.324219 540.21875 853.992188 C 541.890625 853.828125 543.65625 853.683594 545.457031 853.558594 C 547.25 853.367188 549.066406 853.175781 550.84375 852.984375 C 557.941406 852.253906 564.433594 852.039062 565.699219 852.070312 C 568.929688 851.03125 565.71875 850.9375 563.164062 850.59375 C 561.949219 850.382812 560.902344 850.164062 560.730469 849.84375 C 561.019531 849.78125 561.285156 849.734375 561.574219 849.675781 L 561.496094 849.65625 C 561.234375 849.691406 560.972656 849.730469 560.703125 849.765625 C 560.699219 849.683594 560.746094 849.589844 560.867188 849.492188 L 561.496094 849.65625 C 566.214844 848.996094 570.53125 848.390625 574.019531 847.902344 C 571.964844 848.101562 570.339844 848.121094 569.5 847.894531 C 569.457031 847.882812 569.4375 847.867188 569.402344 847.855469 C 573.324219 847.40625 576.507812 846.628906 579.492188 845.890625 C 579.984375 845.761719 580.464844 845.632812 580.949219 845.5 L 582.660156 845.554688 C 583.554688 845.1875 584.429688 844.777344 585.3125 844.386719 C 587.492188 843.894531 589.789062 843.519531 592.476562 843.46875 L 592.367188 843.539062 C 589.980469 844.308594 587.578125 845.042969 585.140625 845.636719 C 586.210938 845.839844 587.296875 846.042969 588.378906 846.25 L 587.511719 846.835938 C 588.082031 846.71875 588.710938 846.585938 589.386719 846.441406 C 589.699219 846.496094 590.011719 846.566406 590.320312 846.617188 C 593.378906 845.824219 595.636719 845.183594 597.324219 844.65625 C 607.886719 842.183594 621.902344 838.519531 628.976562 835.332031 C 629.855469 836.660156 624.148438 839.902344 616.875 843.148438 C 613.191406 844.605469 609.125 846.066406 605.34375 847.328125 C 603.445312 847.949219 601.632812 848.554688 599.957031 849.03125 C 598.269531 849.453125 596.734375 849.808594 595.445312 850.078125 C 604.589844 849.746094 621.152344 844.113281 629.851562 840.804688 L 621.601562 842.988281 L 617.480469 844.066406 L 613.3125 844.949219 C 637.230469 836.90625 630.332031 834.816406 656.945312 824.421875 C 667.617188 819.335938 669.15625 819.042969 669.15625 820.144531 C 669.136719 821.199219 667.402344 823.40625 671.121094 822.234375 C 682.660156 815.410156 684.617188 814.226562 683.539062 814.566406 C 682.496094 814.984375 678.234375 816.65625 677.199219 815.472656 C 686.414062 810.378906 692.113281 807.230469 698.535156 803.679688 C 701.6875 801.808594 705.019531 799.824219 709.003906 797.351562 C 713.039062 794.953125 717.398438 791.585938 723.003906 787.550781 C 716.773438 792.535156 713.144531 796.203125 709.078125 799.1875 C 707.082031 800.726562 705.058594 802.21875 702.679688 803.8125 C 700.308594 805.417969 697.585938 807.128906 694.050781 808.863281 L 699.480469 808.476562 C 703.839844 805.273438 707.863281 802.171875 711.761719 799.085938 C 715.632812 795.960938 719.195312 792.578125 722.929688 789.269531 C 726.703125 786.015625 730.246094 782.273438 734.164062 778.5 C 736.089844 776.570312 738.175781 774.710938 740.175781 772.574219 C 742.199219 770.476562 744.300781 768.296875 746.496094 766.019531 L 749.519531 766.019531 C 749.871094 765.429688 752.648438 762.894531 756.855469 758.542969 C 758.992188 756.410156 761.539062 753.875 764.417969 751.007812 C 767.179688 748.027344 770.261719 744.703125 773.59375 741.105469 C 786.777344 726.613281 802.5625 706.472656 815.394531 685.121094 C 828.390625 663.863281 838.324219 641.554688 843.976562 625.242188 C 847.046875 617.171875 848.679688 610.453125 849.796875 606.269531 C 850.804688 602.210938 850.996094 600.421875 850.15625 601.496094 C 850.269531 601.714844 848.074219 608.863281 844.316406 619.578125 C 843.191406 622.472656 841.960938 625.632812 840.648438 628.992188 C 839.988281 630.671875 839.308594 632.402344 838.609375 634.175781 C 837.828125 635.910156 837.027344 637.6875 836.214844 639.5 C 834.5625 643.113281 832.933594 646.898438 831.121094 650.679688 C 829.214844 654.414062 827.269531 658.21875 825.328125 662.023438 C 823.363281 665.679688 821.34375 669.3125 819.308594 672.863281 L 819.636719 670.730469 C 819.914062 670.191406 820.207031 669.636719 820.507812 669.0625 C 823.144531 664.375 825.847656 658.105469 829.148438 651.382812 C 830.820312 648.03125 832.1875 644.34375 833.796875 640.6875 C 835.328125 636.996094 837.035156 633.296875 838.355469 629.453125 C 850.148438 599.121094 855.976562 568.003906 852.40625 584.390625 C 849.769531 581.769531 854.933594 568.976562 851.757812 569.039062 C 852.546875 565.125 852.929688 561.3125 853.46875 557.683594 C 854 554.054688 854.507812 550.574219 855 547.214844 C 855.773438 540.472656 856.492188 534.226562 857.175781 528.277344 C 857.714844 522.3125 858.230469 516.652344 858.730469 511.109375 C 859.054688 505.542969 859.371094 500.09375 859.6875 494.570312 C 857.339844 517.492188 853.605469 541.722656 847.207031 566.542969 C 846.964844 567.492188 846.691406 568.449219 846.4375 569.402344 C 846.453125 566.046875 846.640625 562.066406 847.148438 557.6875 C 847.914062 551.902344 848.527344 545.324219 849.285156 538.480469 C 849.476562 536.769531 849.671875 535.039062 849.863281 533.304688 C 849.976562 531.558594 850.089844 529.804688 850.203125 528.050781 C 850.390625 524.539062 850.578125 521.023438 850.761719 517.5625 C 850.976562 510.640625 850.585938 503.9375 850.042969 498.007812 C 850.03125 504.5 850.011719 510.972656 848.792969 512.03125 C 848.191406 509.308594 848.078125 504.140625 848.195312 498.523438 C 848.210938 492.910156 848.144531 486.855469 848.3125 482.371094 C 849.480469 483.164062 850.390625 487.0625 851.136719 492.390625 C 851.304688 493.726562 851.484375 495.144531 851.671875 496.628906 C 851.753906 498.113281 851.84375 499.664062 851.933594 501.246094 C 852.058594 504.417969 852.1875 507.726562 852.3125 510.964844 C 852.480469 514.203125 852.429688 517.371094 852.386719 520.253906 C 852.359375 523.140625 852.363281 525.742188 852.433594 527.855469 C 852.570312 532.074219 852.96875 534.335938 853.917969 532.925781 C 854.332031 526.066406 854.542969 519.445312 854.242188 513.136719 C 853.792969 506.824219 853.300781 500.824219 852.578125 495.191406 C 851.726562 489.5625 850.90625 484.289062 850.3125 479.382812 C 849.589844 474.480469 848.921875 469.960938 848.792969 465.773438 C 850.078125 470.160156 851.453125 474.574219 852.667969 479.03125 C 852.042969 474.65625 851.257812 470.300781 850.554688 465.949219 L 850.765625 469.832031 C 849.414062 467.136719 849.160156 462.925781 848.726562 458.09375 C 848.226562 453.28125 847.800781 447.8125 846.667969 442.660156 L 847.402344 443.988281 C 848.046875 446.605469 848.667969 449.125 849.257812 451.519531 C 849.960938 454.175781 850.628906 456.695312 851.265625 459.085938 C 851.828125 461.488281 852.359375 463.765625 852.863281 465.910156 C 853.898438 470.207031 854.988281 473.992188 855.949219 477.304688 C 856.800781 480.625 857.660156 483.464844 858.53125 485.851562 C 862.0625 495.386719 865.570312 497.746094 869.34375 494.570312 C 869.066406 491.921875 868.796875 489.300781 868.527344 486.714844 C 869.109375 487.089844 871.125 486.273438 870.4375 477.652344" fill="inherit"/><path d="M 689.832031 181.261719 L 690.679688 181.144531 C 690.105469 181.027344 689.875 181.09375 689.832031 181.261719" fill="inherit"/><path d="M 555.371094 137.339844 C 558.472656 137.441406 561.558594 137.578125 564.605469 137.886719 C 568.34375 138.371094 572.050781 138.953125 575.730469 139.605469 L 581.230469 140.628906 C 583.046875 141.035156 584.839844 141.527344 586.640625 141.992188 L 597.382812 144.945312 C 600.945312 145.980469 604.433594 147.308594 607.96875 148.480469 C 611.480469 149.742188 615.070312 150.773438 618.550781 152.222656 C 625.554688 154.964844 632.730469 157.4375 639.941406 160.324219 C 654.832031 163.976562 626.851562 153.742188 625.605469 152.425781 C 628.316406 151.261719 631.746094 152.832031 635.308594 154.902344 C 638.878906 156.980469 642.683594 159.242188 646.625 159.019531 C 648.097656 158.097656 640.964844 154.210938 631.722656 150.191406 C 627.039062 148.3125 621.910156 146.246094 617.15625 144.332031 C 612.324219 142.632812 607.882812 141.011719 604.710938 139.652344 C 598.953125 138.140625 595.960938 138.050781 594.027344 138.023438 C 592.074219 138.070312 591.09375 138.503906 589.15625 138.902344 C 587.875 137.816406 584.355469 136.316406 580.75 135.140625 C 577.144531 133.957031 573.523438 132.769531 572.167969 131.703125 C 569.058594 131.472656 566.175781 131.035156 563.40625 130.796875 C 560.636719 130.550781 558.019531 130.246094 555.5 129.902344 C 550.460938 129.214844 545.824219 128.3125 541.144531 127.8125 C 536.480469 127.234375 531.816406 126.566406 526.777344 126.265625 C 525.230469 126.21875 523.636719 126.199219 522.011719 126.199219 C 522.007812 126.207031 521.914062 126.207031 521.730469 126.199219 C 518.136719 126.203125 514.347656 126.320312 510.226562 126.632812 C 509.277344 126.335938 508.851562 126.109375 508.8125 125.945312 C 508.242188 125.945312 507.675781 125.921875 507.105469 125.933594 L 508.515625 126.261719 C 503.988281 126.9375 498.519531 127.367188 492.675781 127.613281 C 490.621094 127.710938 488.488281 127.855469 486.371094 127.996094 C 488.207031 128.003906 490.027344 128.023438 491.792969 128.140625 C 500.289062 128.851562 507.945312 129.488281 515.023438 130.960938 C 522.105469 132.238281 528.609375 133.425781 534.847656 134.753906 C 536.472656 135.0625 538.078125 135.34375 539.675781 135.597656 C 540.015625 135.746094 540.148438 135.921875 539.988281 136.128906 C 536.824219 136.585938 533.074219 136.371094 529.203125 135.835938 C 525.332031 135.308594 521.324219 134.796875 517.71875 134.125 C 514.109375 133.5 510.894531 132.875 508.628906 132.640625 C 506.363281 132.496094 505.050781 132.65625 505.242188 133.429688 C 508.394531 133.960938 512.464844 134.597656 516.867188 135.039062 C 521.265625 135.5625 526.015625 135.660156 530.472656 136.28125 C 539.398438 137.335938 547.296875 138.15625 549.304688 139.554688 C 553.109375 139.289062 542.660156 136.902344 552.925781 137.425781 C 568.476562 139.992188 565.933594 141.109375 574.894531 144.222656 C 577.839844 144.078125 580.824219 143.816406 583.765625 143.863281 C 584.085938 145.199219 587.074219 146.53125 591.679688 147.894531 C 596.3125 149.164062 602.472656 150.855469 609.214844 152.703125 C 610.902344 153.15625 612.628906 153.617188 614.371094 154.085938 C 614.929688 154.25 615.492188 154.441406 616.050781 154.617188 C 605.210938 150.257812 593.824219 146.464844 581.761719 143.011719 C 573.3125 140.882812 564.527344 138.878906 555.371094 137.339844" fill="inherit"/><path d="M 822.324219 611.171875 L 820.5625 615.808594 L 818.570312 620.355469 C 817.355469 624.882812 816.316406 629.496094 814.933594 633.996094 L 810.71875 647.527344 C 816.695312 632.597656 821.867188 617.386719 825.859375 601.871094 L 822.324219 611.171875" fill="inherit"/><path d="M 764.855469 711.664062 C 755.113281 724.433594 738.527344 742.675781 737.542969 747.8125 C 744.457031 742.648438 747.59375 738.648438 749.777344 735.441406 C 751.917969 732.1875 752.984375 729.570312 754.835938 726.128906 C 756.589844 724.402344 760.058594 720.460938 762.742188 717.707031 C 764.175781 716.1875 765.324219 715.027344 765.894531 714.769531 C 766.765625 712.238281 768.429688 708.238281 764.855469 711.664062" fill="inherit"/><path d="M 765.875 716.402344 C 766.445312 714.953125 766.371094 714.550781 765.894531 714.769531 C 765.472656 715.996094 765.234375 716.882812 765.875 716.402344" fill="inherit"/><path d="M 725.605469 757.519531 C 726.582031 755.933594 727.953125 754.101562 729.746094 751.914062 C 731.488281 749.683594 733.710938 747.160156 736.570312 744.351562 C 733.066406 746.761719 731.164062 748.796875 729.3125 750.929688 C 727.441406 753.035156 725.503906 755.117188 722.148438 757.730469 C 719.929688 761.074219 717.746094 764.507812 715.3125 767.695312 C 717.160156 765.972656 718.972656 764.21875 720.6875 762.355469 L 722.726562 763.3125 C 723.050781 762.664062 723.628906 760.671875 725.605469 757.519531" fill="inherit"/><path d="M 728.726562 771.054688 C 728.488281 771.28125 728.253906 771.503906 728.011719 771.734375 C 728.316406 771.511719 728.59375 771.308594 728.90625 771.078125 C 728.835938 771.078125 728.789062 771.0625 728.726562 771.054688" fill="inherit"/><path d="M 741.382812 757.734375 L 740.75 759.105469 C 740.75 759.105469 743.421875 755.796875 747.046875 751.308594 C 750.660156 746.835938 754.652344 740.71875 757.898438 735.6875 C 755.234375 739.402344 751.730469 743.597656 748.074219 747.753906 C 744.210938 751.71875 740.289062 755.738281 736.886719 759.226562 C 729.992188 765.847656 725.359375 770.746094 728.726562 771.054688 C 735.035156 765.070312 740.066406 760.03125 741.382812 757.734375" fill="inherit"/><path d="M 698.800781 778.214844 L 691.382812 783.777344 L 683.703125 788.980469 C 690.742188 784.769531 697.394531 779.984375 704.144531 775.292969 L 698.800781 778.214844" fill="inherit"/><path d="M 707.355469 782.910156 C 707.304688 783.191406 708.617188 782.574219 709.972656 781.9375 C 711.320312 781.292969 712.644531 780.550781 712.753906 780.789062 C 712.851562 781.003906 711.757812 782.234375 707.902344 785.070312 C 705.925781 786.753906 711.605469 782.605469 717.410156 777.285156 C 723.402344 772.1875 729.433594 765.902344 729.523438 764.875 C 727.46875 766.308594 724.328125 770.0625 720.921875 773 C 717.585938 776.015625 714.363281 778.621094 712.796875 778.34375 C 708.886719 781.542969 707.378906 782.597656 707.355469 782.910156" fill="inherit"/><path d="M 641.785156 813.59375 C 646.4375 812.164062 649.734375 811.246094 652.78125 806.929688 C 649.808594 809.449219 644.929688 811.3125 639.800781 813.246094 C 637.238281 814.21875 634.609375 815.210938 632.039062 816.1875 C 629.445312 817.109375 626.957031 818.101562 624.726562 819.230469 L 621.671875 822.222656 C 626.359375 819.488281 630.230469 817.738281 633.535156 816.511719 C 636.773438 815.132812 639.453125 814.304688 641.785156 813.59375" fill="inherit"/><path d="M 565.390625 841.144531 C 566.816406 841.113281 569.378906 840.992188 573.585938 839.980469 C 575.941406 838.304688 581.921875 836.777344 580.636719 835.851562 C 587.855469 834.390625 586.769531 836.070312 591.625 835.128906 C 603.355469 830.089844 622.109375 824.128906 630.792969 818.558594 C 626.347656 820.8125 625.105469 820.960938 621.671875 822.222656 C 612.382812 825.308594 601.6875 829.457031 591.308594 832.5 C 586.175781 834.210938 581.035156 835.289062 576.359375 836.238281 C 574.015625 836.699219 571.773438 837.078125 569.667969 837.351562 C 567.542969 837.535156 565.550781 837.59375 563.730469 837.542969 C 565.5625 838.144531 563.792969 839.523438 563.664062 840.390625 C 563.601562 840.824219 563.953125 841.128906 565.390625 841.144531" fill="inherit"/><path d="M 574.019531 847.902344 C 575.492188 847.757812 577.175781 847.523438 578.976562 847.207031 C 577.613281 847.398438 575.933594 847.632812 574.019531 847.902344" fill="inherit"/><path d="M 273.597656 755.652344 C 273.335938 754.386719 271.4375 751.917969 265.394531 747.304688 C 266.398438 748.855469 269.550781 751.925781 273.597656 755.652344" fill="inherit"/><path d="M 503.800781 846.492188 C 506.351562 846.390625 508.777344 846.292969 511.355469 846.1875 C 508.925781 846.214844 506.265625 846.351562 503.800781 846.492188" fill="inherit"/><path d="M 498.867188 846.605469 C 500.300781 846.675781 501.953125 846.601562 503.800781 846.492188 C 502.160156 846.558594 500.496094 846.65625 498.867188 846.605469" fill="inherit"/><path d="M 347.011719 806.792969 L 348.433594 807.800781 C 347.980469 807.441406 347.535156 807.15625 347.074219 806.820312 C 347.0625 806.816406 347.0625 806.816406 347.011719 806.792969" fill="inherit"/><path d="M 762.921875 728.058594 C 763.125 727.753906 763.292969 727.503906 763.496094 727.203125 C 762.382812 728.730469 761.878906 729.507812 762.921875 728.058594" fill="inherit"/><path d="M 316.980469 202.722656 C 315.027344 203.898438 313.074219 205.09375 311.113281 206.070312 C 312.761719 205.175781 314.777344 204.15625 316.914062 203.117188 C 319.097656 202.160156 321.382812 201.152344 323.496094 200.125 C 327.734375 198.089844 331.25 195.917969 331.988281 194.027344 C 329.660156 194.902344 326.429688 197.019531 322.746094 199.273438 C 320.90625 200.410156 318.964844 201.597656 316.980469 202.722656" fill="inherit"/><path d="M 326.742188 185.21875 C 320.605469 188.5 314.636719 192.082031 308.617188 195.617188 L 314.441406 192.992188 L 322.652344 187.769531 L 326.792969 185.402344 L 326.863281 185.671875 C 327.796875 185.023438 329.066406 184.214844 330.472656 183.34375 C 330.292969 183.425781 330.117188 183.519531 329.941406 183.601562 L 331.101562 182.941406 C 330.046875 183.46875 329.011719 184.03125 327.96875 184.578125 C 327.558594 184.785156 327.144531 184.96875 326.734375 185.1875 L 326.742188 185.21875" fill="inherit"/><path d="M 327.226562 186.886719 L 326.863281 185.671875 C 324.964844 187.121094 324.441406 187.859375 327.226562 186.886719" fill="inherit"/><path d="M 357.683594 171.558594 L 342.066406 177.996094 C 341.613281 176.265625 341.410156 175.417969 351.132812 171.496094 C 348.546875 171.839844 340.269531 176.363281 335.703125 179.125 L 339.277344 177.597656 C 337.429688 179.0625 333.640625 181.355469 330.472656 183.34375 C 344.089844 176.726562 356.363281 176.726562 357.683594 171.558594" fill="inherit"/><path d="M 379.523438 162.101562 C 376.386719 162.980469 371.171875 164.925781 367.394531 166.671875 C 363.609375 168.398438 361.277344 169.902344 363.925781 170.136719 C 369.089844 167.46875 374.179688 164.46875 379.523438 162.101562" fill="inherit"/><path d="M 404.859375 157.632812 C 385.632812 161.132812 396.691406 161.039062 386.019531 164.863281 C 389.3125 163.878906 392.402344 162.894531 394.941406 161.78125 C 389.914062 162.65625 391.425781 161.964844 394.695312 160.902344 C 397.976562 159.882812 402.988281 158.46875 404.859375 157.632812" fill="inherit"/><path d="M 386.019531 164.863281 C 384.507812 165.332031 382.9375 165.839844 381.417969 166.429688 C 383.339844 165.828125 384.75 165.332031 386.019531 164.863281" fill="inherit"/><path d="M 242.007812 265.550781 L 243.410156 265.421875 C 243.824219 264.59375 243.664062 264.335938 242.007812 265.550781" fill="inherit"/><path d="M 439.148438 153.4375 L 440.398438 153.386719 C 442.011719 153.074219 443.6875 152.761719 445.511719 152.484375 L 439.148438 153.4375" fill="inherit"/><path d="M 159.863281 429.039062 C 159.835938 429.085938 159.816406 429.101562 159.792969 429.140625 C 159.804688 429.160156 159.824219 429.140625 159.863281 429.039062" fill="inherit"/><path d="M 499.800781 145.933594 L 500.25 146.058594 C 500.265625 146 500.097656 145.960938 499.800781 145.933594" fill="inherit"/></g></svg>