<?xml version="1.0" encoding="UTF-8" standalone="no"?><svg xmlns="http://www.w3.org/2000/svg" xmlns:xlink="http://www.w3.org/1999/xlink" fill="#000000" height="70" preserveAspectRatio="xMidYMid meet" version="1" viewBox="12.0 15.1 72.5 70.0" width="72.5" zoomAndPan="magnify"><g id="change1_1"><path d="M17.23,27.7c1.85-5.67,7.14-10.62,13.1-10.22c4.86,0.33,8.95,3.98,13.77,4.6c4.22,0.55,8.35-1.28,12.19-3.13 c3.83-1.85,7.86-3.81,12.11-3.55c4.25,0.26,8.62,3.71,8.23,7.94c-0.36,3.84-4.22,6.44-5.39,10.12c-1.21,3.79,0.7,7.9,3.21,10.99 c2.51,3.09,5.67,5.69,7.65,9.14c1.98,3.45,2.42,8.29-0.41,11.09c-3.19,3.16-8.47,2.12-12.79,0.89s-9.65-2.16-12.73,1.11 c-2.35,2.49-2.25,6.32-2.51,9.73c-0.25,3.42-1.56,7.43-4.88,8.25c-2.09,0.52-4.3-0.48-5.89-1.93c-1.59-1.45-2.74-3.31-4.09-4.98 c-3.81-4.71-9.38-7.96-15.36-8.94c-2.43-0.4-4.95-0.45-7.21-1.42c-2.26-0.97-4.23-3.22-3.86-5.65c0.5-3.28,4.25-5.2,5.33-8.37 c0.9-2.65,0.68-5.66,0.14-8.35C16.63,39.12,15.25,33.75,17.23,27.7z" fill="#ffffff"/></g></svg>